<svg width="220" height="220" viewBox="0 0 220 220" fill="none" xmlns="http://www.w3.org/2000/svg">

  <!-- Background -->
  <rect width="220" height="220" rx="42" fill="#F3FAF5"/>

  <!-- Ambient Glow -->
  <circle cx="110" cy="110" r="82" fill="#4FB8B2" opacity="0.08"/>

  <!-- Bottom Depth -->
  <rect
    x="42"
    y="108"
    width="126"
    height="36"
    rx="18"
    fill="#328F97"
    opacity="0.95"
  />

  <!-- Presentation Card -->
  <rect
    x="42"
    y="52"
    width="126"
    height="92"
    rx="18"
    fill="#4FB8B2"
  />

  <!-- Slide Content -->
  <rect
    x="62"
    y="76"
    width="36"
    height="8"
    rx="4"
    fill="white"
    opacity="0.95"
  />

  <rect
    x="62"
    y="94"
    width="72"
    height="6"
    rx="3"
    fill="white"
    opacity="0.82"
  />

  <rect
    x="62"
    y="108"
    width="56"
    height="6"
    rx="3"
    fill="white"
    opacity="0.72"
  />

  <!-- Mini Chart -->
  <rect
    x="132"
    y="72"
    width="22"
    height="22"
    rx="6"
    fill="rgba(255,255,255,0.18)"
  />

  <path
    d="M143 78V84L148 89"
    stroke="white"
    stroke-width="4"
    stroke-linecap="round"
    stroke-linejoin="round"
  />

  <!-- Magic Wand -->
  <g transform="rotate(-38 142 146)">

    <!-- Wand Body -->
    <rect
      x="136"
      y="112"
      width="12"
      height="76"
      rx="6"
      fill="#173A40"
    />

    <!-- Wand Highlight -->
    <rect
      x="139"
      y="116"
      width="3"
      height="66"
      rx="2"
      fill="#416166"
      opacity="0.7"
    />

    <!-- Gold Ring -->
    <rect
      x="134"
      y="124"
      width="16"
      height="6"
      rx="3"
      fill="#FBBF24"
    />

    <!-- Wand Tip -->
    <rect
      x="136"
      y="102"
      width="12"
      height="12"
      rx="4"
      fill="#FBBF24"
    />

  </g>

  <!-- Sparkles -->
  <g fill="#FBBF24">

    <path d="M174 54L177 62L185 65L177 68L174 76L171 68L163 65L171 62L174 54Z"/>

    <path d="M189 92L191 97L196 99L191 101L189 106L187 101L182 99L187 97L189 92Z"/>

    <path d="M154 40L156 45L161 47L156 49L154 54L152 49L147 47L152 45L154 40Z"/>

  </g>

</svg>